<svg xmlns="http://www.w3.org/2000/svg" viewBox="0 0 180 260"><defs><linearGradient id="feather" x1="0" y1="1" x2="1" y2="0"><stop offset="0" stop-color="#9b6b35"/><stop offset=".32" stop-color="#d8b36b"/><stop offset=".62" stop-color="#f0dfae"/><stop offset=".82" stop-color="#4f7f78"/><stop offset="1" stop-color="#315e5b"/></linearGradient><linearGradient id="shaft" x1="0" y1="1" x2="1" y2="0"><stop offset="0" stop-color="#6d4528"/><stop offset=".5" stop-color="#c29350"/><stop offset="1" stop-color="#806037"/></linearGradient><filter id="shadow" x="-30%" y="-20%" width="160%" height="150%"><feDropShadow dx="1.5" dy="3" stdDeviation="2" flood-color="#3e2818" flood-opacity=".28"/></filter></defs><g filter="url(#shadow)" transform="rotate(7 90 130)"><path d="M45 188C57 142 76 91 116 42C132 23 151 11 163 12C163 29 155 47 141 63C111 98 82 128 61 151C53 160 49 174 45 188Z" fill="url(#feather)" stroke="#76502d" stroke-width="2.2"/><path d="M49 181C77 137 107 91 158 18" fill="none" stroke="#79512c" stroke-width="2.4" stroke-linecap="round"/><path d="M67 151C85 145 103 136 121 124M76 133C96 128 111 119 128 108M88 111C106 107 120 100 137 88M100 89C116 84 128 77 143 66M113 67C128 60 138 52 149 41M126 48C139 40 147 31 154 23" fill="none" stroke="#86603a" stroke-width="1.35" stroke-linecap="round" opacity=".9"/><path d="M53 174C42 192 29 207 17 220L26 228C44 214 57 197 63 180Z" fill="url(#shaft)" stroke="#694522" stroke-width="2"/><path d="M23 224L16 250L30 237L36 244L42 214Z" fill="#674323" stroke="#54351d" stroke-width="1.5"/><path d="M30 225C38 215 45 202 51 187" fill="none" stroke="#e4c784" stroke-width="1.4" opacity=".8"/></g></svg>